<?xml version="1.0" standalone="no"?>
<!DOCTYPE svg PUBLIC "-//W3C//DTD SVG 20010904//EN"
 "http://www.w3.org/TR/2001/REC-SVG-20010904/DTD/svg10.dtd">
<svg version="1.0" xmlns="http://www.w3.org/2000/svg"
 width="336.000000pt" height="336.000000pt" viewBox="0 0 336.000000 336.000000"
 preserveAspectRatio="xMidYMid meet">
<metadata>
Created by potrace 1.11, written by Peter Selinger 2001-2013
</metadata>
<g transform="translate(0.000000,336.000000) scale(0.100000,-0.100000)"
fill="#000000" stroke="none">
<path d="M1170 3213 c-60 -8 -146 -25 -155 -31 -5 -4 -15 -7 -22 -8 -59 -9
-198 -119 -255 -201 -40 -59 -28 -67 22 -15 36 37 159 107 207 117 10 2 50 11
88 20 77 18 272 24 370 11 l60 -8 -102 -33 c-205 -68 -385 -196 -490 -350 -64
-93 -119 -223 -138 -326 -3 -13 -8 -37 -11 -54 -4 -16 -8 -39 -9 -50 -4 -30
-15 -98 -19 -122 -25 -125 -25 -602 -1 -748 2 -11 9 -56 15 -99 20 -148 57
-258 105 -310 13 -14 21 -27 19 -29 -2 -2 2 -4 10 -4 13 0 13 5 -1 30 -20 40
-22 287 -2 287 5 0 19 -15 31 -34 56 -82 195 -206 231 -206 8 0 18 -6 20 -12
3 -8 6 -6 6 5 1 9 -3 17 -9 17 -5 0 -10 5 -10 11 0 7 -8 18 -17 26 -10 8 -13
12 -8 9 6 -2 -2 21 -17 52 -29 58 -61 171 -72 252 -3 25 -9 58 -11 73 -3 16
-2 27 2 25 71 -31 133 -74 157 -107 16 -23 38 -43 48 -47 26 -8 22 -39 -9 -66
-54 -46 -57 -55 -31 -80 35 -34 161 -134 176 -139 8 -3 5 -12 -10 -29 -48 -52
-98 -119 -98 -128 0 -6 -4 -12 -9 -14 -5 -1 -30 -29 -56 -61 -53 -66 -57 -57
55 -137 41 -29 76 -54 78 -55 2 -2 0 -24 -3 -49 -7 -41 -12 -49 -46 -67 -42
-21 -47 -33 -24 -59 14 -16 13 -19 -12 -35 -15 -10 -36 -26 -45 -36 -16 -16
-16 -18 0 -25 9 -4 35 -9 57 -10 119 -9 113 -6 124 -44 5 -19 12 -84 15 -145
6 -127 11 -155 28 -167 7 -4 42 -8 78 -8 l65 0 31 63 c18 37 36 61 45 60 8 -1
32 -6 54 -12 l40 -10 58 64 c49 55 62 64 83 59 17 -4 32 1 55 20 25 21 39 26
68 22 154 -20 149 -21 192 23 21 22 39 44 39 49 0 19 74 36 142 33 37 -1 76 3
87 9 24 13 18 37 -12 46 -26 8 -68 44 -62 54 12 19 13 66 1 89 -13 27 -40 150
-34 156 4 5 65 16 93 19 40 3 36 17 -113 395 -3 8 13 -5 36 -28 l42 -43 60 63
c33 35 60 67 60 71 0 4 7 5 15 2 8 -4 12 -11 9 -18 -3 -6 6 3 20 19 39 45 92
160 115 250 19 75 21 103 18 425 -2 190 -7 361 -12 380 -4 19 -8 44 -7 55 12
224 11 238 -16 289 -14 26 -49 71 -76 100 -28 28 -49 54 -48 58 1 4 -9 32 -23
62 -34 73 -89 118 -178 146 -40 12 -92 32 -117 45 -52 27 -207 80 -265 90 -22
4 -49 10 -60 12 -43 10 -246 12 -270 3 -17 -7 -28 -5 -38 4 -29 29 -119 66
-202 82 -30 6 -177 11 -205 7z m1255 -1665 c-6 -37 -16 -79 -31 -126 -3 -9
-14 -7 -43 10 l-39 22 28 36 c44 53 85 100 88 100 2 0 1 -19 -3 -42z m105
-153 c0 -71 -1 -72 -54 -32 -18 13 -18 15 8 55 14 23 31 42 36 42 6 0 10 -29
10 -65z"/>
</g>
</svg>
